<svg width="124" height="36" viewBox="0 0 124 36" fill="none" xmlns="http://www.w3.org/2000/svg">
<mask id="mask0_1_718" style="mask-type:luminance" maskUnits="userSpaceOnUse" x="0" y="0" width="124" height="36">
<path d="M123.263 0H0V35.218H123.263V0Z" fill="white"/>
</mask>
<g mask="url(#mask0_1_718)">
<path fill-rule="evenodd" clip-rule="evenodd" d="M56.1504 22.3329C55.2931 22.5306 54.8496 22.2668 54.8496 21.6989C54.8496 20.9208 55.6541 20.6094 56.8034 20.6094C57.3089 20.6094 57.7858 20.653 57.7858 20.653C57.7858 20.9861 57.062 22.1227 56.1504 22.3329ZM57.0228 14.5428C54.2784 14.5428 52.308 15.552 52.308 15.552V18.5187C52.308 18.5187 54.4834 17.2681 56.2484 17.2681C57.6563 17.2681 57.8295 18.0278 57.7657 18.6581C57.7657 18.6581 57.3592 18.5506 56.12 18.5506C53.1987 18.5506 51.7247 19.8782 51.7247 22.0067C51.7247 24.0259 53.3814 24.8696 54.7777 24.8696C56.8144 24.8696 57.7103 23.5005 57.985 22.8512C58.1762 22.4007 58.2114 22.097 58.3823 22.097C58.5786 22.097 58.5126 22.3149 58.5027 22.7632C58.4865 23.5486 58.524 24.1422 58.6483 24.6426H61.3494V19.784C61.3494 16.7505 60.276 14.5428 57.0228 14.5428Z" fill="white"/>
<path fill-rule="evenodd" clip-rule="evenodd" d="M74.8007 19.7112C74.8007 18.8238 75.6257 18.0155 77.1401 18.0155C78.7898 18.0155 80.1175 18.8102 80.415 18.9907V15.5563C80.415 15.5563 79.3665 14.5467 76.7894 14.5467C74.0728 14.5467 71.8105 16.1362 71.8105 19.5579C71.8105 22.9791 73.8637 24.8765 76.782 24.8765C79.062 24.8765 80.4208 23.6237 80.4208 23.6237V20.362C79.9909 20.6023 78.7931 21.434 77.1566 21.434C75.424 21.434 74.8007 20.6364 74.8007 19.7112ZM38.6987 14.7716C38.6991 14.7738 38.8711 15.5118 38.6444 16.477C38.5289 16.9678 38.3165 17.3854 38.5729 17.3854C38.7497 17.3854 38.7501 17.2386 38.9801 16.7126C39.3165 15.9436 40.0256 14.5441 41.6827 14.5441C43.258 14.5441 44.0001 15.5012 44.2459 16.3974C44.433 17.0783 44.2694 17.3854 44.4976 17.3854C44.6597 17.3854 44.7158 17.0321 44.9154 16.5852C45.2738 15.7847 46.0534 14.5441 47.6301 14.5441C50.0091 14.5441 50.9175 16.2621 50.9175 18.8392V24.6461H47.3832V19.2926C47.3832 18.4001 47.2391 17.5343 46.4254 17.5343C45.6715 17.5343 45.32 18.8703 45.32 19.7329V24.6482H41.7209V19.293C41.7209 18.151 41.5598 17.5346 40.7571 17.5346C40.0623 17.5346 39.6569 18.764 39.6569 19.7332V24.6465H36.0721V14.7716H38.6987ZM62.5258 14.7851C62.5258 14.7851 63.1373 15.1377 64.3215 15.1377C65.5079 15.1377 66.1103 14.7851 66.1103 14.7851V24.6487H62.5258V14.7851ZM92.1194 14.7851C92.1194 14.7851 92.7309 15.1377 93.9155 15.1377C95.1015 15.1377 95.7043 14.7851 95.7043 14.7851V24.6487H92.1194V14.7851ZM70.8552 11.7821V24.6487H67.2703V11.7821H70.8552ZM84.6752 11.7821C84.6752 11.7821 84.8238 12.153 84.8238 13.2528C84.8238 14.8768 84.4705 16.1986 84.3036 16.7023C84.2152 16.969 84.0575 17.3806 84.2838 17.3879C84.4144 17.392 84.4929 17.1953 84.6529 16.8541C84.8121 16.5125 85.6015 14.5463 87.6765 14.5463C90.5346 14.5463 90.955 16.8868 90.955 19.4214V24.6482H87.3701V19.2067C87.3701 18.0907 87.1361 17.5365 86.3881 17.5365C85.4849 17.5365 85.1657 18.935 85.1657 19.7354V24.6482H81.5808V11.7817L84.6752 11.7821ZM99.5423 14.7716C99.5423 14.7738 99.7143 15.5118 99.4873 16.477C99.3723 16.9678 99.1593 17.3854 99.4163 17.3854C99.5933 17.3854 99.5933 17.2386 99.8233 16.7126C100.159 15.9436 100.869 14.5441 102.526 14.5441C104.173 14.5441 104.826 15.5056 105.089 16.3974C105.265 16.995 105.112 17.3854 105.34 17.3854C105.503 17.3854 105.559 17.0321 105.758 16.5852C106.116 15.7847 106.896 14.5441 108.473 14.5441C110.852 14.5441 111.76 16.2621 111.76 18.8392V24.6461H108.226V19.2926C108.226 18.4001 108.082 17.5343 107.268 17.5343C106.514 17.5343 106.163 18.8703 106.163 19.7329V24.6482H102.563V19.293C102.563 18.151 102.403 17.5346 101.6 17.5346C100.905 17.5346 100.5 18.764 100.5 19.7332V24.6465H96.9153V14.7716H99.5423ZM64.3072 11.6823C63.0959 11.6823 62.1131 12.3235 62.1131 13.1145C62.1131 13.9054 63.0955 14.5467 64.3072 14.5467C65.5193 14.5467 66.5017 13.9054 66.5017 13.1145C66.5017 12.3235 65.5197 11.6823 64.3072 11.6823ZM93.9012 11.6823C92.6895 11.6823 91.7067 12.3235 91.7067 13.1145C91.7067 13.9054 92.6891 14.5467 93.9012 14.5467C95.1129 14.5467 96.0957 13.9054 96.0957 13.1145C96.0957 12.3235 95.1133 11.6823 93.9012 11.6823Z" fill="white"/>
<path fill-rule="evenodd" clip-rule="evenodd" d="M117.867 22.5208C117.045 22.5208 116.441 21.4785 116.441 20.0261C116.441 18.6156 117.061 17.5322 117.839 17.5322C118.835 17.5322 119.261 18.4468 119.261 20.0261C119.261 21.6692 118.869 22.5208 117.867 22.5208ZM118.85 14.5406C117.008 14.5406 116.164 15.9218 115.797 16.7087C115.554 17.2285 115.567 17.3815 115.389 17.3815C115.134 17.3815 115.346 16.9641 115.461 16.4732C115.689 15.5066 115.516 14.768 115.516 14.768H112.891V27.3668H116.474V23.3725C116.898 24.0919 117.683 24.8605 118.894 24.8605C121.486 24.8605 122.79 22.6678 122.79 19.7055C122.79 16.348 121.228 14.5406 118.85 14.5406Z" fill="white"/>
<path fill-rule="evenodd" clip-rule="evenodd" d="M23.3998 17.5217C23.6408 17.4931 23.8715 17.4916 24.0839 17.5217C24.2068 17.2399 24.2277 16.7546 24.1173 16.2259C23.9533 15.4401 23.731 14.9647 23.2717 15.0388C22.8124 15.1129 22.7955 15.6823 22.9599 16.4677C23.0523 16.9098 23.2167 17.2876 23.3998 17.5217Z" fill="white"/>
<path fill-rule="evenodd" clip-rule="evenodd" d="M19.4593 18.1435C19.7876 18.2877 19.9897 18.3834 20.0686 18.2998C20.1196 18.2477 20.1042 18.1483 20.0257 18.0203C19.8635 17.7558 19.5301 17.4872 19.176 17.3364C18.4526 17.025 17.5894 17.1284 16.9236 17.6068C16.7038 17.7679 16.4955 17.9909 16.5252 18.1263C16.5347 18.1699 16.5677 18.2029 16.6448 18.214C16.826 18.2345 17.4592 17.9146 18.1888 17.8698C18.7035 17.8383 19.1306 17.9993 19.4593 18.1435Z" fill="white"/>
<path fill-rule="evenodd" clip-rule="evenodd" d="M18.7998 18.5207C18.3717 18.5882 18.1358 18.7294 17.9843 18.8604C17.8552 18.9734 17.7752 19.0985 17.7759 19.1861C17.7763 19.228 17.7943 19.2522 17.8086 19.2643C17.828 19.2815 17.8511 19.2911 17.879 19.2911C17.9755 19.2911 18.1923 19.2041 18.1923 19.2041C18.7877 18.991 19.1806 19.017 19.5698 19.061C19.7848 19.0853 19.8868 19.0985 19.9337 19.0247C19.9477 19.0035 19.9646 18.9576 19.9216 18.8879C19.8215 18.7254 19.389 18.4506 18.7998 18.5207Z" fill="white"/>
<path fill-rule="evenodd" clip-rule="evenodd" d="M22.07 19.9045C22.3605 20.0472 22.6804 19.9911 22.7846 19.7794C22.8888 19.5678 22.7377 19.2802 22.4471 19.1375C22.1566 18.9948 21.8367 19.0509 21.7325 19.2625C21.6283 19.4746 21.7794 19.7618 22.07 19.9045Z" fill="white"/>
<path fill-rule="evenodd" clip-rule="evenodd" d="M23.9383 18.2725C23.7024 18.2685 23.5065 18.5275 23.501 18.8514C23.4955 19.1753 23.6826 19.4406 23.9184 19.4446C24.1543 19.4486 24.3502 19.1896 24.3557 18.8657C24.3612 18.5422 24.1741 18.2766 23.9383 18.2725Z" fill="white"/>
<path fill-rule="evenodd" clip-rule="evenodd" d="M8.08299 24.1089C8.02429 24.0352 7.92781 24.0576 7.83426 24.0796C7.76896 24.095 7.69522 24.1119 7.61415 24.1108C7.44063 24.1075 7.29352 24.0334 7.21098 23.9064C7.10349 23.7414 7.10973 23.4952 7.22822 23.2135L7.28361 23.0873C7.47291 22.6624 7.78951 21.9518 7.43403 21.2746C7.16622 20.7647 6.72967 20.4474 6.2047 20.3806C5.70065 20.3168 5.18192 20.5035 4.85102 20.8685C4.32899 21.4445 4.24718 22.2285 4.34806 22.5054C4.38511 22.6067 4.44308 22.6349 4.4849 22.6408C4.57368 22.6525 4.70501 22.588 4.78718 22.3668L4.81066 22.2949C4.84735 22.1778 4.91558 21.9599 5.02747 21.7853C5.16247 21.5747 5.37231 21.4298 5.61884 21.3766C5.86977 21.3227 6.12656 21.3708 6.34154 21.5116C6.70729 21.7508 6.84816 22.1991 6.69188 22.6265C6.61118 22.8477 6.47984 23.2707 6.50882 23.6181C6.56752 24.3213 7.00004 24.6038 7.38853 24.6339C7.76639 24.6482 8.03053 24.4358 8.09729 24.281C8.13655 24.1893 8.10353 24.1335 8.08188 24.1097" fill="white"/>
<path fill-rule="evenodd" clip-rule="evenodd" d="M11.6769 11.1923C12.9095 9.76816 14.4264 8.52999 15.7856 7.8348C15.8326 7.81059 15.8824 7.86159 15.8571 7.90781C15.7493 8.10334 15.5413 8.52191 15.4756 8.83924C15.4653 8.88877 15.5193 8.92582 15.5611 8.89758C16.4067 8.32125 17.8774 7.70347 19.1676 7.62423C19.223 7.62093 19.2498 7.69173 19.2058 7.72585C19.0095 7.87626 18.7949 8.08463 18.6382 8.2952C18.6115 8.33116 18.6368 8.38252 18.6815 8.38288C19.5873 8.38949 20.8643 8.70645 21.6967 9.17345C21.7528 9.205 21.7128 9.31395 21.6497 9.29964C20.3903 9.01093 18.329 8.79192 16.1873 9.31432C14.2756 9.78056 12.8163 10.5008 11.7521 11.2748C11.6981 11.3141 11.6332 11.2425 11.6769 11.1923ZM22.8974 25.5901C22.9341 25.5747 22.959 25.5333 22.955 25.4918C22.9499 25.4408 22.9044 25.4038 22.8534 25.4089C22.8534 25.4089 20.2234 25.7981 17.7387 24.8887C18.0095 24.009 18.7288 24.3267 19.8166 24.4144C21.777 24.5314 23.5343 24.2449 24.8329 23.8722C25.958 23.5493 27.4361 22.9125 28.584 22.0064C28.971 22.8567 29.1078 23.7929 29.1078 23.7929C29.1078 23.7929 29.4076 23.7394 29.6581 23.8934C29.8947 24.0391 30.0683 24.3417 29.9498 25.1246C29.7084 26.5869 29.0869 27.774 28.0421 28.8661C27.406 29.5507 26.6342 30.1457 25.7508 30.5786C25.2816 30.8251 24.7823 31.0383 24.2544 31.2103C20.3159 32.4969 16.2841 31.0826 14.9848 28.0458C14.8809 27.8177 14.7933 27.5785 14.7243 27.3286C14.1707 25.3275 14.6406 22.9264 16.1103 21.415C16.2009 21.3189 16.2933 21.2048 16.2933 21.0621C16.2933 20.9428 16.2174 20.817 16.1517 20.7275C15.6374 19.9817 13.8563 18.7109 14.214 16.2515C14.4708 14.4848 16.016 13.2404 17.4566 13.3142L17.8216 13.3351C18.446 13.3721 18.9904 13.4521 19.5044 13.4737C20.3646 13.5112 21.138 13.3861 22.0544 12.6226C22.3633 12.3651 22.6113 12.1417 23.0306 12.0709C23.0746 12.0632 23.1843 12.0239 23.4033 12.0342C23.6271 12.0463 23.8398 12.1076 24.031 12.2349C24.7654 12.7235 24.8696 13.9074 24.9077 14.7731C24.9294 15.2673 24.9892 16.4632 25.0097 16.8066C25.0563 17.5916 25.2629 17.7021 25.6803 17.8396C25.9151 17.917 26.133 17.9746 26.4544 18.0649C27.4266 18.3378 28.0029 18.6148 28.3664 18.9706C28.5832 19.193 28.6841 19.4292 28.7153 19.6545C28.8298 20.4909 28.066 21.5239 26.0435 22.4627C23.8329 23.4888 21.1508 23.7485 19.2978 23.542L18.6485 23.4686C17.1664 23.2691 16.3208 25.1844 17.2105 26.497C17.7838 27.343 19.3455 27.8932 20.908 27.8936C24.4903 27.894 27.2439 26.3642 28.2681 25.0432L28.3499 24.9265C28.4005 24.8506 28.3587 24.8087 28.296 24.8517C27.4592 25.4243 23.7423 27.6977 19.7663 27.0135C19.7663 27.0135 19.2832 26.9339 18.8422 26.7626C18.4919 26.6261 17.7582 26.2886 17.669 25.5362C20.8775 26.5285 22.8974 25.5901 22.8974 25.5901ZM5.27422 17.9651C4.15825 18.1819 3.17472 18.8144 2.57345 19.6882C2.21394 19.3885 1.54443 18.8081 1.42593 18.5818C0.465883 16.7585 2.47366 13.214 3.87651 11.2121C7.34326 6.26504 12.7726 2.52058 15.2859 3.19999C15.6946 3.31555 17.0479 4.88457 17.0479 4.88457C17.0479 4.88457 14.5354 6.27861 12.2055 8.22183C9.06604 10.6391 6.69504 14.1524 5.27422 17.9651ZM7.1492 26.3312C6.98044 26.3602 6.80803 26.3715 6.63414 26.3671C4.95506 26.322 3.1417 24.8106 2.96158 23.0181C2.76238 21.0368 3.77489 19.5121 5.56733 19.1504C5.78157 19.1071 6.04057 19.0822 6.31974 19.0968C7.32418 19.1519 8.80407 19.923 9.14194 22.1109C9.44134 24.0486 8.96585 26.0216 7.1492 26.3312ZM29.8925 22.8226C29.8782 22.7716 29.7843 22.4293 29.6556 22.0166C29.5268 21.6036 29.3936 21.3134 29.3936 21.3134C29.9101 20.5404 29.9193 19.8489 29.8504 19.4575C29.777 18.9721 29.5748 18.5587 29.1676 18.1309C28.7604 17.7035 27.9273 17.2655 26.7567 16.9368L26.1426 16.7662C26.1396 16.7409 26.1103 15.3183 26.0839 14.7075C26.0644 14.2658 26.0266 13.5764 25.8128 12.8978C25.5578 11.9788 25.1139 11.1747 24.5596 10.6603C26.0894 9.07476 27.0443 7.32781 27.0417 5.82959C27.0373 2.94796 23.4983 2.07596 19.1368 3.88197L18.2127 4.27414C18.2087 4.2701 16.542 2.63504 16.5171 2.61303C11.5444 -1.72427 -4.00275 15.5571 0.967743 19.7542L2.05399 20.6747C1.77224 21.4047 1.66145 22.2411 1.75207 23.1403C1.86799 24.2955 2.46376 25.4027 3.42968 26.2582C4.34645 27.0704 5.55192 27.5847 6.72145 27.5836C8.65586 32.0412 13.0757 34.7758 18.2578 34.9298C23.8167 35.0949 28.4831 32.4866 30.4384 27.8011C30.5664 27.4724 31.109 25.9907 31.109 24.6825C31.109 23.3681 30.3658 22.8226 29.8925 22.8226Z" fill="white"/>
</g>
</svg>
